<svg width="64" height="64" viewBox="0 0 64 64" fill="none" xmlns="http://www.w3.org/2000/svg">
<!-- Cloud Instance - Isometric cloud server -->
<!-- Base platform -->
<path d="M32 52L8 38V30L32 44L56 30V38L32 52Z" fill="#FBDBD0"/>
<path d="M32 44L8 30L32 16L56 30L32 44Z" fill="#C1DBF6"/>
<path d="M32 44L56 30V38L32 52V44Z" fill="white" fill-opacity="0.4"/>
<!-- Server tower left -->
<path d="M18 34L18 22L26 18L26 30L18 34Z" fill="white"/>
<path d="M26 30L26 18L32 21L32 33L26 30Z" fill="#FBDBD0"/>
<path d="M18 34L26 30L32 33L24 37L18 34Z" fill="#C1DBF6"/>
<!-- Server slots left -->
<rect x="19" y="24" width="5" height="2" fill="#374874" fill-opacity="0.3"/>
<rect x="19" y="28" width="5" height="2" fill="#374874" fill-opacity="0.3"/>
<circle cx="20" cy="25" r="0.7" fill="#374874"/>
<circle cx="20" cy="29" r="0.7" fill="#C1DBF6"/>
<!-- Server tower right -->
<path d="M38 30L38 18L46 22L46 34L38 30Z" fill="white"/>
<path d="M46 34L46 22L52 25L52 37L46 34Z" fill="#FBDBD0"/>
<path d="M38 30L46 34L52 37L44 33L38 30Z" fill="#C1DBF6"/>
<!-- Server slots right -->
<rect x="39" y="20" width="5" height="2" fill="#374874" fill-opacity="0.3"/>
<rect x="39" y="24" width="5" height="2" fill="#374874" fill-opacity="0.3"/>
<circle cx="40" cy="21" r="0.7" fill="#374874"/>
<circle cx="40" cy="25" r="0.7" fill="#C1DBF6"/>
<!-- Cloud symbol top -->
<path d="M32 8C28.6863 8 26 10.6863 26 14C26 14.1678 26.0087 14.3336 26.0257 14.4971C24.8093 15.1493 24 16.4227 24 17.875C24 19.8508 25.5992 21.5 27.625 21.5H36.375C38.4008 21.5 40 19.8508 40 17.875C40 16.4227 39.1907 15.1493 37.9743 14.4971C37.9913 14.3336 38 14.1678 38 14C38 10.6863 35.3137 8 32 8Z" fill="white"/>
<!-- Cloud outline -->
<path fill-rule="evenodd" clip-rule="evenodd" d="M32 7C28.134 7 25 10.134 25 14C25 14.1126 25.0039 14.2244 25.0116 14.3353C23.5167 15.1538 22.5 16.7471 22.5 18.5C22.5 21.0376 24.4624 23 27 23H37C39.5376 23 41.5 21.0376 41.5 18.5C41.5 16.7471 40.4833 15.1538 38.9884 14.3353C38.9961 14.2244 39 14.1126 39 14C39 10.134 35.866 7 32 7ZM32 9C29.2386 9 27 11.2386 27 14C27 14.2761 27.0262 14.5461 27.0767 14.8079L27.2188 15.5261L26.5547 15.8149C25.6271 16.2179 25 17.1486 25 18.125C25 19.4657 26.0343 20.5 27.375 20.5H36.625C37.9657 20.5 39 19.4657 39 18.125C39 17.1486 38.3729 16.2179 37.4453 15.8149L36.7812 15.5261L36.9233 14.8079C36.9738 14.5461 37 14.2761 37 14C37 11.2386 34.7614 9 32 9Z" fill="#374874"/>
<!-- Main outline -->
<path fill-rule="evenodd" clip-rule="evenodd" d="M32 15L7 29.5V38.5L32 53L57 38.5V29.5L32 15ZM32 17L9 30V37L32 51L55 37V30L32 17Z" fill="#374874"/>
</svg>
