<svg width="64" height="64" viewBox="0 0 64 64" fill="none" xmlns="http://www.w3.org/2000/svg">
<!-- Support Tickets - Isometric ticket with chat bubble -->
<!-- Ticket body -->
<path d="M42.0505 38.2168L11.6401 55.7743L15.6829 15.4444L37.7926 2.67932L42.0505 38.2168Z" fill="#C1DBF6"/>
<path d="M21.9496 61.7654L11.6401 55.7743L15.6829 15.4443H24.8303L25.9924 21.4355L21.9496 61.7654Z" fill="#FBDBD0"/>
<path d="M48.1021 32.7335L37.7926 26.7423V2.67932L39.2776 6.88008L48.1021 8.67052V32.7335Z" fill="#FBDBD0"/>
<path d="M48.1021 8.67053L52.36 44.208L21.9496 61.7655L25.9924 21.4356L48.1021 8.67053Z" fill="white"/>
<!-- Ticket text lines -->
<line x1="30" y1="26" x2="44" y2="18" stroke="#374874" stroke-width="1.5" stroke-linecap="round" stroke-opacity="0.4"/>
<line x1="29" y1="32" x2="43" y2="24" stroke="#374874" stroke-width="1.5" stroke-linecap="round" stroke-opacity="0.4"/>
<line x1="28" y1="38" x2="38" y2="32" stroke="#374874" stroke-width="1.5" stroke-linecap="round" stroke-opacity="0.4"/>
<!-- Chat bubble -->
<path d="M40 42C40 38.6863 42.6863 36 46 36H54C57.3137 36 60 38.6863 60 42V50C60 53.3137 57.3137 56 54 56H50L46 60V56H46C42.6863 56 40 53.3137 40 50V42Z" fill="white"/>
<path d="M40 42C40 38.6863 42.6863 36 46 36H54C57.3137 36 60 38.6863 60 42V50C60 53.3137 57.3137 56 54 56H50L46 60V56H46C42.6863 56 40 53.3137 40 50V42Z" fill="#C1DBF6" fill-opacity="0.5"/>
<!-- Chat bubble dots -->
<circle cx="47" cy="46" r="2" fill="#374874"/>
<circle cx="53" cy="46" r="2" fill="#374874"/>
<!-- Question mark in bubble (alternative design) -->
<!-- Chat bubble outline -->
<path fill-rule="evenodd" clip-rule="evenodd" d="M46 35C42.134 35 39 38.134 39 42V50C39 53.866 42.134 57 46 57H45V61C45 61.3466 45.1671 61.6684 45.4453 61.8507C45.7235 62.0329 46.0754 62.0494 46.3695 61.8944L51.2361 59H54C57.866 59 61 55.866 61 52V42C61 38.134 57.866 35 54 35H46ZM46 37C43.2386 37 41 39.2386 41 42V50C41 52.7614 43.2386 55 46 55H47V58L50.7639 56H54C56.7614 56 59 53.7614 59 51V42C59 39.2386 56.7614 37 54 37H46Z" fill="#374874"/>
<!-- Ticket outline -->
<path fill-rule="evenodd" clip-rule="evenodd" d="M37.7926 1.76501C37.634 1.76501 37.4761 1.80632 37.3355 1.88751L15.2258 14.6525C14.971 14.7996 14.8025 15.0604 14.7732 15.3531L10.7304 55.683C10.6946 56.0398 10.8707 56.3846 11.1807 56.5647L21.4902 62.5559C21.6322 62.6384 21.7909 62.6797 21.9496 62.6797C22.1075 62.6797 22.2653 62.6388 22.4068 62.5572L52.8172 44.9998C53.134 44.8168 53.3113 44.4626 53.2678 44.0992L49.0099 8.56172C48.963 8.1702 48.6704 7.85285 48.2839 7.77445L39.967 6.08707L38.6546 2.37457C38.5641 2.11839 38.3642 1.91576 38.1093 1.82161C38.0068 1.78378 37.8995 1.76501 37.7926 1.76501Z" fill="#374874"/>
</svg>
